<svg width="100" height="100" viewBox="0 0 100 100" fill="none" xmlns="http://www.w3.org/2000/svg">
<rect width="100" height="100" rx="23" fill="#0500EB"/>
<path d="M54.4482 73.6264C51.2862 73.6264 48.4673 73.0447 45.9915 71.8814C43.5305 70.718 41.5767 69.1147 40.13 67.0714C38.6832 65.0281 37.93 62.6864 37.8704 60.0465H47.2667C47.3711 61.8214 48.1168 63.2607 49.5039 64.3643C50.891 65.468 52.5391 66.0199 54.4482 66.0199C55.9695 66.0199 57.3118 65.6843 58.4751 65.0131C59.6534 64.3271 60.5707 63.38 61.2269 62.1719C61.8981 60.9489 62.2337 59.5469 62.2337 57.9659C62.2337 56.3551 61.8906 54.9382 61.2045 53.7152C60.5334 52.4922 59.6012 51.5376 58.408 50.8516C57.2148 50.1655 55.8501 49.815 54.3139 49.8001C52.9716 49.8001 51.6665 50.076 50.3988 50.6278C49.146 51.1797 48.169 51.9329 47.468 52.8874L38.8548 51.3438L41.0249 27.1818H69.0348V35.1016H49.0117L47.826 46.5785H48.0945C48.8999 45.445 50.1154 44.5053 51.7411 43.7596C53.3668 43.0138 55.1864 42.641 57.1999 42.641C59.9592 42.641 62.4201 43.2898 64.5827 44.5874C66.7454 45.8849 68.4531 47.6673 69.706 49.9343C70.9588 52.1864 71.5778 54.7816 71.5629 57.7198C71.5778 60.8072 70.8619 63.5515 69.4151 65.9528C67.9833 68.3391 65.9773 70.2184 63.397 71.5906C60.8317 72.9478 57.8487 73.6264 54.4482 73.6264Z" fill="white"/>
</svg>
